<svg id="epdFBIo0weS1" xmlns="http://www.w3.org/2000/svg" xmlns:xlink="http://www.w3.org/1999/xlink" viewBox="0 0 122.88 107.39" shape-rendering="geometricPrecision" text-rendering="geometricPrecision">
<style><![CDATA[
#epdFBIo0weS3_ts {animation: epdFBIo0weS3_ts__ts 4500ms linear infinite normal forwards}@keyframes epdFBIo0weS3_ts__ts { 0% {transform: translate(61.443451px,59.833669px) scale(0.498676,0.5)} 17.777778% {transform: translate(61.443451px,59.833669px) scale(0.558324,0.559805)} 35.555556% {transform: translate(61.443451px,59.833669px) scale(0.5,0.5)} 53.333333% {transform: translate(61.443451px,59.833669px) scale(0.56,0.56)} 71.111111% {transform: translate(61.443451px,59.833669px) scale(0.5,0.5)} 88.888889% {transform: translate(61.443451px,59.833669px) scale(0.56,0.56)} 100% {transform: translate(61.443451px,59.833669px) scale(0.5,0.5)}} #epdFBIo0weS4_to {animation: epdFBIo0weS4_to__to 4500ms linear infinite normal forwards}@keyframes epdFBIo0weS4_to__to { 0% {offset-distance: 0%} 15.555556% {offset-distance: 54.967656%} 31.111111% {offset-distance: 79.845258%} 44.444444% {offset-distance: 100%} 100% {offset-distance: 100%}} #epdFBIo0weS4_ts {animation: epdFBIo0weS4_ts__ts 4500ms linear infinite normal forwards}@keyframes epdFBIo0weS4_ts__ts { 0% {transform: scale(0.311421,0.307051)} 15.555556% {transform: scale(0.189815,0.187155)} 31.111111% {transform: scale(0.127986,0.126192)} 44.444444% {transform: scale(0,0)} 100% {transform: scale(0,0)}} #epdFBIo0weS5_to {animation: epdFBIo0weS5_to__to 4500ms linear infinite normal forwards}@keyframes epdFBIo0weS5_to__to { 0% {offset-distance: 0%} 44.444444% {offset-distance: 0%} 60% {offset-distance: 54.967656%} 75.555556% {offset-distance: 79.845258%} 88.888889% {offset-distance: 100%} 100% {offset-distance: 100%}} #epdFBIo0weS5_ts {animation: epdFBIo0weS5_ts__ts 4500ms linear infinite normal forwards}@keyframes epdFBIo0weS5_ts__ts { 0% {transform: scale(0.311421,0.307051)} 44.444444% {transform: scale(0.311421,0.307051)} 60% {transform: scale(0.189815,0.187155)} 75.555556% {transform: scale(0.127986,0.126192)} 88.888889% {transform: scale(0,0)} 100% {transform: scale(0,0)}} #epdFBIo0weS6_to {animation: epdFBIo0weS6_to__to 4500ms linear infinite normal forwards}@keyframes epdFBIo0weS6_to__to { 0% {offset-distance: 0%} 13.333333% {offset-distance: 0%} 26.666667% {offset-distance: 43.830877%} 37.777778% {offset-distance: 65.837201%} 51.111111% {offset-distance: 100%} 100% {offset-distance: 100%}} #epdFBIo0weS6_ts {animation: epdFBIo0weS6_ts__ts 4500ms linear infinite normal forwards}@keyframes epdFBIo0weS6_ts__ts { 0% {transform: scale(0.311421,0.307051)} 13.333333% {transform: scale(0.311421,0.307051)} 26.666667% {transform: scale(0.152385,0.150245)} 37.777778% {transform: scale(0.120903,0.119206)} 51.111111% {transform: scale(0,0)} 100% {transform: scale(0,0)}} #epdFBIo0weS7_to {animation: epdFBIo0weS7_to__to 4500ms linear infinite normal forwards}@keyframes epdFBIo0weS7_to__to { 0% {offset-distance: 0%} 51.111111% {offset-distance: 0%} 64.444444% {offset-distance: 43.830877%} 75.555556% {offset-distance: 65.837201%} 88.888889% {offset-distance: 100%} 100% {offset-distance: 100%}} #epdFBIo0weS7_ts {animation: epdFBIo0weS7_ts__ts 4500ms linear infinite normal forwards}@keyframes epdFBIo0weS7_ts__ts { 0% {transform: scale(0.311421,0.307051)} 51.111111% {transform: scale(0.311421,0.307051)} 64.444444% {transform: scale(0.152385,0.150245)} 75.555556% {transform: scale(0.120903,0.119206)} 88.888889% {transform: scale(0,0)} 100% {transform: scale(0,0)}} #epdFBIo0weS8_to {animation: epdFBIo0weS8_to__to 4500ms linear infinite normal forwards}@keyframes epdFBIo0weS8_to__to { 0% {offset-distance: 0%} 22.222222% {offset-distance: 0%} 37.777778% {offset-distance: 58.90793%} 46.666667% {offset-distance: 86.018498%} 57.777778% {offset-distance: 100%} 100% {offset-distance: 100%}} #epdFBIo0weS8_ts {animation: epdFBIo0weS8_ts__ts 4500ms linear infinite normal forwards}@keyframes epdFBIo0weS8_ts__ts { 0% {transform: scale(0.311421,0.307051)} 22.222222% {transform: scale(0.311421,0.307051)} 37.777778% {transform: scale(0.206318,0.203424)} 46.666667% {transform: scale(0.117002,0.115362)} 57.777778% {transform: scale(0,0)} 100% {transform: scale(0,0)}} #epdFBIo0weS9_to {animation: epdFBIo0weS9_to__to 4500ms linear infinite normal forwards}@keyframes epdFBIo0weS9_to__to { 0% {offset-distance: 0%} 86.666667% {offset-distance: 0%} 100% {offset-distance: 100%}} #epdFBIo0weS9_ts {animation: epdFBIo0weS9_ts__ts 4500ms linear infinite normal forwards}@keyframes epdFBIo0weS9_ts__ts { 0% {transform: scale(0.311421,0.307051)} 86.666667% {transform: scale(0.311421,0.307051)} 100% {transform: scale(0.221333,0.218228)}} #epdFBIo0weS10_to {animation: epdFBIo0weS10_to__to 4500ms linear infinite normal forwards}@keyframes epdFBIo0weS10_to__to { 0% {offset-distance: 0%} 33.333333% {offset-distance: 0%} 60% {offset-distance: 50.034604%} 73.333333% {offset-distance: 100%} 100% {offset-distance: 100%}} #epdFBIo0weS10_ts {animation: epdFBIo0weS10_ts__ts 4500ms linear infinite normal forwards}@keyframes epdFBIo0weS10_ts__ts { 0% {transform: scale(0.311421,0.307051)} 33.333333% {transform: scale(0.311421,0.307051)} 60% {transform: scale(0.129641,0.127823)} 66.666667% {transform: scale(0.044017,0.0434)} 73.333333% {transform: scale(0,0)} 100% {transform: scale(0,0)}} #epdFBIo0weS11_to {animation: epdFBIo0weS11_to__to 4500ms linear infinite normal forwards}@keyframes epdFBIo0weS11_to__to { 0% {offset-distance: 0%} 86.666667% {offset-distance: 0%} 100% {offset-distance: 100%}} #epdFBIo0weS11_ts {animation: epdFBIo0weS11_ts__ts 4500ms linear infinite normal forwards}@keyframes epdFBIo0weS11_ts__ts { 0% {transform: scale(0.311421,0.307051)} 86.666667% {transform: scale(0.311421,0.307051)} 100% {transform: scale(0.220531,0.217437)}} #epdFBIo0weS12_to {animation: epdFBIo0weS12_to__to 4500ms linear infinite normal forwards}@keyframes epdFBIo0weS12_to__to { 0% {offset-distance: 0%} 48.888889% {offset-distance: 0%} 64.444444% {offset-distance: 52.009785%} 77.777778% {offset-distance: 76.835835%} 86.666667% {offset-distance: 100%} 100% {offset-distance: 100%}} #epdFBIo0weS12_ts {animation: epdFBIo0weS12_ts__ts 4500ms linear infinite normal forwards}@keyframes epdFBIo0weS12_ts__ts { 0% {transform: scale(0.311421,0.307051)} 48.888889% {transform: scale(0.311421,0.307051)} 64.444444% {transform: scale(0.20074,0.197925)} 77.777778% {transform: scale(0.096446,0.095094)} 86.666667% {transform: scale(-0.001351,-0.001332)} 100% {transform: scale(-0.001351,-0.001332)}}
]]></style>
<g transform="translate(.000001 0)"><g id="epdFBIo0weS3_ts" transform="translate(61.443451,59.833669) scale(0.498676,0.5)"><path d="M60.83,17.18c8-8.35,13.62-15.57,26-17c23.17-2.64,44.44,21.08,32.74,44.43-3.33,6.65-10.11,14.56-17.61,22.32-8.23,8.52-17.34,16.87-23.72,23.2l-17.4,17.26L46.46,93.55C29.16,76.89,1,55.92,0,29.94C-0.63,11.74,13.73,0.08,30.25,0.29c14.76.2,21,7.54,30.58,16.89Z" transform="translate(-61.431933,-53.684107)" fill="#ed1b24" fill-rule="evenodd"/></g><g id="epdFBIo0weS4_to" style="offset-path:path('M57.407627,59.83369C21.759745,63.868107,18.386999,48.17509,19.137312,37.204552C22.831783,27.453131,28.736797,22.382098,30.801177,16.490382C31.032348,7.374356,27.203887,4.128854,19.137312,6.880117');offset-rotate:0deg"><g id="epdFBIo0weS4_ts" transform="scale(0.311421,0.307051)"><path d="M60.83,17.18c8-8.35,13.62-15.57,26-17c23.17-2.64,44.44,21.08,32.74,44.43-3.33,6.65-10.11,14.56-17.61,22.32-8.23,8.52-17.34,16.87-23.72,23.2l-17.4,17.26L46.46,93.55C29.16,76.89,1,55.92,0,29.94C-0.63,11.74,13.73,0.08,30.25,0.29c14.76.2,21,7.54,30.58,16.89Z" transform="translate(-61.431933,-53.684107)" fill="#ed1b24" fill-rule="evenodd"/></g></g><g id="epdFBIo0weS5_to" style="offset-path:path('M57.407627,59.83369C21.759745,63.868107,18.386999,48.17509,19.137312,37.204552C22.831783,27.453131,28.736797,22.382098,30.801177,16.490382C31.032348,7.374356,27.203887,4.128854,19.137312,6.880117');offset-rotate:0deg"><g id="epdFBIo0weS5_ts" transform="scale(0.311421,0.307051)"><path d="M60.83,17.18c8-8.35,13.62-15.57,26-17c23.17-2.64,44.44,21.08,32.74,44.43-3.33,6.65-10.11,14.56-17.61,22.32-8.23,8.52-17.34,16.87-23.72,23.2l-17.4,17.26L46.46,93.55C29.16,76.89,1,55.92,0,29.94C-0.63,11.74,13.73,0.08,30.25,0.29c14.76.2,21,7.54,30.58,16.89Z" transform="translate(-61.431933,-53.684107)" fill="#ed1b24" fill-rule="evenodd"/></g></g><g id="epdFBIo0weS6_to" style="offset-path:path('M61.442155,59.83369C81.515824,74.403814,106.803589,70.155203,111.21829,49.471212C109.974722,45.510163,117.45835,33.534373,92.083133,32.980797C71.07779,24.982244,73.782595,6.88015,98.489996,6.880117');offset-rotate:0deg"><g id="epdFBIo0weS6_ts" transform="scale(0.311421,0.307051)"><path d="M60.83,17.18c8-8.35,13.62-15.57,26-17c23.17-2.64,44.44,21.08,32.74,44.43-3.33,6.65-10.11,14.56-17.61,22.32-8.23,8.52-17.34,16.87-23.72,23.2l-17.4,17.26L46.46,93.55C29.16,76.89,1,55.92,0,29.94C-0.63,11.74,13.73,0.08,30.25,0.29c14.76.2,21,7.54,30.58,16.89Z" transform="translate(-61.431933,-53.684107)" fill="#ed1b24" fill-rule="evenodd"/></g></g><g id="epdFBIo0weS7_to" style="offset-path:path('M61.442155,59.83369C81.515824,74.403814,106.803589,70.155203,111.21829,49.471212C109.974722,45.510163,117.45835,33.534373,92.083133,32.980797C71.07779,24.982244,73.782595,6.88015,98.489996,6.880117');offset-rotate:0deg"><g id="epdFBIo0weS7_ts" transform="scale(0.311421,0.307051)"><path d="M60.83,17.18c8-8.35,13.62-15.57,26-17c23.17-2.64,44.44,21.08,32.74,44.43-3.33,6.65-10.11,14.56-17.61,22.32-8.23,8.52-17.34,16.87-23.72,23.2l-17.4,17.26L46.46,93.55C29.16,76.89,1,55.92,0,29.94C-0.63,11.74,13.73,0.08,30.25,0.29c14.76.2,21,7.54,30.58,16.89Z" transform="translate(-61.431933,-53.684107)" fill="#ed1b24" fill-rule="evenodd"/></g></g><g id="epdFBIo0weS8_to" style="offset-path:path('M61.442155,61.10324C69.467081,90.607364,49.478483,99.778988,30.801177,93.891202C13.128807,87.552256,18.676171,80.702745,11.66602,76.324105C6.895674,71.84004,5.399526,67.948711,4.128549,64.829474');offset-rotate:0deg"><g id="epdFBIo0weS8_ts" transform="scale(0.311421,0.307051)"><path d="M60.83,17.18c8-8.35,13.62-15.57,26-17c23.17-2.64,44.44,21.08,32.74,44.43-3.33,6.65-10.11,14.56-17.61,22.32-8.23,8.52-17.34,16.87-23.72,23.2l-17.4,17.26L46.46,93.55C29.16,76.89,1,55.92,0,29.94C-0.63,11.74,13.73,0.08,30.25,0.29c14.76.2,21,7.54,30.58,16.89Z" transform="translate(-61.431933,-53.684107)" fill="#ed1b24" fill-rule="evenodd"/></g></g><g id="epdFBIo0weS9_to" style="offset-path:path('M61.442155,61.10324Q69.467081,90.607364,38.800525,95.477161');offset-rotate:0deg"><g id="epdFBIo0weS9_ts" transform="scale(0.311421,0.307051)"><path d="M60.83,17.18c8-8.35,13.62-15.57,26-17c23.17-2.64,44.44,21.08,32.74,44.43-3.33,6.65-10.11,14.56-17.61,22.32-8.23,8.52-17.34,16.87-23.72,23.2l-17.4,17.26L46.46,93.55C29.16,76.89,1,55.92,0,29.94C-0.63,11.74,13.73,0.08,30.25,0.29c14.76.2,21,7.54,30.58,16.89Z" transform="translate(-61.431933,-53.684107)" fill="#ed1b24" fill-rule="evenodd"/></g></g><g id="epdFBIo0weS10_to" style="offset-path:path('M61.442155,59.83369C68.376042,42.500475,62.724318,20.645081,49.936335,16.254679C27.558507,-4.143751,71.118645,4.141187,79.354839,6.880117');offset-rotate:0deg"><g id="epdFBIo0weS10_ts" transform="scale(0.311421,0.307051)"><path d="M60.83,17.18c8-8.35,13.62-15.57,26-17c23.17-2.64,44.44,21.08,32.74,44.43-3.33,6.65-10.11,14.56-17.61,22.32-8.23,8.52-17.34,16.87-23.72,23.2l-17.4,17.26L46.46,93.55C29.16,76.89,1,55.92,0,29.94C-0.63,11.74,13.73,0.08,30.25,0.29c14.76.2,21,7.54,30.58,16.89Z" transform="translate(-61.431933,-53.684107)" fill="#ed1b24" fill-rule="evenodd"/></g></g><g id="epdFBIo0weS11_to" style="offset-path:path('M61.442155,59.83369Q68.376042,42.500475,63.084946,33.19063');offset-rotate:0deg"><g id="epdFBIo0weS11_ts" transform="scale(0.311421,0.307051)"><path d="M60.83,17.18c8-8.35,13.62-15.57,26-17c23.17-2.64,44.44,21.08,32.74,44.43-3.33,6.65-10.11,14.56-17.61,22.32-8.23,8.52-17.34,16.87-23.72,23.2l-17.4,17.26L46.46,93.55C29.16,76.89,1,55.92,0,29.94C-0.63,11.74,13.73,0.08,30.25,0.29c14.76.2,21,7.54,30.58,16.89Z" transform="translate(-61.431933,-53.684107)" fill="#ed1b24" fill-rule="evenodd"/></g></g><g id="epdFBIo0weS12_to" style="offset-path:path('M62.614204,57.850665C59.157636,86.040626,80.529375,97.105834,98.489996,92.71143C112.537201,83.842754,105.175957,75.423403,98.489997,70.185382C82.851913,53.096262,101.286123,54.37647,103.746997,53.694967');offset-rotate:0deg"><g id="epdFBIo0weS12_ts" transform="scale(0.311421,0.307051)"><path d="M60.83,17.18c8-8.35,13.62-15.57,26-17c23.17-2.64,44.44,21.08,32.74,44.43-3.33,6.65-10.11,14.56-17.61,22.32-8.23,8.52-17.34,16.87-23.72,23.2l-17.4,17.26L46.46,93.55C29.16,76.89,1,55.92,0,29.94C-0.63,11.74,13.73,0.08,30.25,0.29c14.76.2,21,7.54,30.58,16.89Z" transform="translate(-61.431933,-53.684107)" fill="#ed1b24" fill-rule="evenodd"/></g></g></g></svg>
